<svg width="81" height="80" viewBox="0 0 81 80" fill="none" xmlns="http://www.w3.org/2000/svg">
<path d="M69.2422 38.8491C69.2422 55.0558 56.0264 68.256 39.8477 68.256C36.6496 68.256 33.5926 67.7393 30.7237 66.7998L27.0552 77.98C31.0529 79.2954 35.3327 80 39.8007 80C62.5167 80 81 61.5385 81 38.8491V38.8021H69.2422C69.2422 38.8021 69.2422 38.8021 69.2422 38.8491Z" fill="url(#paint0_linear)"/>
<path fill-rule="evenodd" clip-rule="evenodd" d="M19.0129 63.9342C19.154 62.9477 19.2951 62.0082 19.3892 61.0217C19.4362 60.458 19.3892 59.8473 19.3892 59.2366C19.3892 59.0957 19.3421 58.9548 19.3892 58.8138C19.4362 58.438 19.6243 58.2032 20.0006 58.2032C20.8471 58.2032 21.6937 58.1092 22.6343 58.438C23.1987 57.9683 23.8571 57.5455 24.4215 57.0288C25.174 56.3711 25.9265 55.6665 26.632 54.9148C27.0552 54.4921 27.3374 54.0223 27.7137 53.5525C28.231 52.8949 28.8424 52.2842 29.5949 51.8614C30.3004 51.4386 31.0059 51.0628 31.7113 50.64C32.4638 50.2172 32.8871 49.6066 32.9812 48.761C33.0282 48.4791 33.0752 48.2443 33.0752 47.9624C33.4985 46.4122 33.7807 44.6741 34.6743 43.2648C35.0505 42.7011 35.1916 42.0904 35.1446 41.4327C35.0976 40.5872 35.2857 39.7416 35.4738 38.8961C35.5679 38.4263 35.6619 37.9096 35.803 37.4398C35.8501 37.2519 35.9441 37.064 36.0852 36.9231C36.3674 36.5473 36.6966 36.2184 37.0258 35.8896L36.9318 31.192C36.9318 31.0041 36.9318 30.7692 36.9318 30.5813C36.9318 30.4874 36.9318 30.3464 36.8848 30.2525C36.5555 29.1251 36.1793 27.9976 35.803 26.8702C34.4862 26.9172 33.3104 27.387 32.0405 27.5279C31.7113 29.0311 31.3351 30.4874 31.241 31.9906C31.194 32.6013 31.1469 33.212 31.0529 33.8227C30.9588 34.4803 31.1469 35.044 31.5232 35.5138C31.8524 35.9366 32.0405 36.3594 32.0405 36.8761C32.0405 37.2519 32.1346 37.5337 32.4168 37.8156C32.6049 37.9565 32.699 38.1444 32.5109 38.4263C31.6643 38.3793 31.6643 37.6277 31.3821 37.064C31.288 37.2519 31.194 37.3458 31.194 37.4398C31.0999 37.7217 31.0999 38.0035 31.0059 38.2384C30.8177 38.8021 30.2534 38.943 29.783 38.5202C29.4068 38.1914 29.1716 37.8156 28.8895 37.3928C28.5132 36.8291 28.4191 36.1714 28.6543 35.5608C28.9835 34.7152 29.0776 33.8696 28.8895 32.9771C28.7013 31.9906 28.6543 31.0041 28.6073 30.0176C28.5602 29.5478 28.6543 29.0781 28.7013 28.6553C28.7954 27.8567 28.8895 27.0581 29.0305 26.2595C29.0776 25.9777 29.1716 25.7898 29.4068 25.6019C30.6766 24.6623 32.0876 23.9107 33.6396 23.5349C34.0159 23.441 34.4391 23.441 34.8154 23.441C35.0976 23.441 35.2857 23.347 35.4268 23.1591C35.8971 22.6424 36.4144 22.2196 37.1669 22.1256C37.5902 22.0787 37.7783 21.7498 37.8724 21.3271C37.6843 20.9513 37.4491 20.5285 37.261 20.1057C37.0258 19.542 36.7907 18.9783 36.8848 18.3676C36.9788 17.9918 37.0729 17.569 37.308 17.2402C37.6372 16.7704 38.0605 16.3006 38.766 16.2067C38.9541 16.1597 39.1422 16.1597 39.3774 16.1127H39.5655C40.0358 16.1127 40.4591 16.1127 40.9294 16.2067C43.1399 16.7234 43.7983 20.4345 43.375 22.2666C42.9988 22.6424 42.4815 22.5015 42.0582 22.5954C41.8701 22.8303 41.823 23.0652 42.0111 23.347C43.1399 24.8972 43.8454 26.6823 44.739 28.3265C44.786 28.3734 44.833 28.4204 44.833 28.4674C45.3974 28.1386 45.7266 27.5749 46.0088 27.0111C46.385 26.3065 46.7143 25.5549 47.0435 24.8503C47.2316 24.4275 47.2316 24.0517 47.0435 23.6289C46.6672 22.9242 46.385 22.1726 46.385 21.3271C46.385 20.9043 46.4321 20.7633 46.7143 20.5285C46.8083 20.5754 46.8554 20.6224 46.9494 20.6694C46.9964 20.7164 47.0905 20.8103 47.1375 20.8573C47.3257 20.7633 47.5138 20.5754 47.7019 20.5754C47.89 20.5754 48.1252 20.6694 48.3133 20.7633C49.1599 21.0922 49.5361 21.7029 49.395 22.5954C49.301 23.1591 49.2069 23.7228 49.0658 24.2865C48.7836 25.32 48.4544 26.3535 48.1722 27.387C47.843 28.6553 47.3257 29.8297 46.7143 30.9571C46.4791 31.3799 46.291 31.7557 46.1029 32.1785C45.7736 32.8362 45.7266 32.8831 45.0211 32.6483C44.5508 34.1515 44.0335 35.6547 43.9865 37.3458C44.4568 37.4398 44.9271 37.5807 45.4444 37.6747C47.3257 37.9096 49.0658 38.5672 50.806 39.1309C50.9471 39.1779 51.0411 39.2719 51.1352 39.3188C51.9817 39.8356 52.8283 40.3053 53.6749 40.8221C54.2863 41.1979 54.7096 41.6676 54.7566 42.3253V42.4192C54.7566 42.5132 54.7566 42.6071 54.7566 42.7481C54.7566 42.936 54.7096 43.1239 54.6155 43.2648C53.4867 45.0969 52.311 46.9289 50.9 48.5731C49.7713 49.8414 48.6896 51.1568 47.796 52.566C47.3727 53.1767 47.1846 53.8814 47.2786 54.68C47.4197 54.8209 47.5608 54.9618 47.7019 55.1027C47.7489 55.5255 47.796 55.9483 47.89 56.3711C48.1722 57.3106 48.7836 58.0152 49.5832 58.579C49.9594 58.8138 50.1946 59.1427 50.2416 59.6124C49.7243 59.9413 49.1128 59.8473 48.5955 59.6594C47.89 59.4245 47.1846 59.0957 46.4791 58.7669C46.338 58.7199 46.2439 58.6259 46.1029 58.532C45.7736 58.2032 45.4444 57.9213 45.1622 57.5925C44.5979 56.9348 43.9865 56.3711 43.281 55.8544C43.0458 55.6665 42.8107 55.3846 42.6226 55.1967C42.8107 54.4451 43.281 54.0223 43.8454 53.6935C44.5979 53.3177 45.0682 52.7539 45.4914 52.0963C45.6796 51.7675 45.8677 51.4386 46.0558 51.1568C47.0905 49.6535 47.5608 48.0094 47.89 46.2713C47.9371 45.9894 48.0311 45.7545 48.1722 45.4727C48.4544 44.815 48.7836 44.1574 49.1599 43.4057C46.5261 43.9225 43.9865 44.3922 41.3997 43.5467C41.3057 43.7346 41.2116 43.8755 41.1176 44.0634C40.5061 45.1438 39.9418 46.2243 39.3304 47.3047C38.6719 48.4322 37.8254 49.3717 36.9318 50.3112C36.3674 50.8749 36.0382 51.4856 35.8501 52.1902C35.6619 52.9418 35.1446 53.3177 34.5332 53.6465C33.8748 54.0223 33.1693 54.3041 32.5109 54.7269C29.9712 56.3711 27.3845 58.0622 24.8918 59.8003C24.1393 60.3171 23.4809 61.0217 22.7754 61.7263C22.6343 61.8673 22.5873 62.1961 22.5402 62.431C22.5402 62.7128 22.4462 62.9477 22.211 63.1826C21.9288 63.4645 21.6937 63.7463 21.4115 64.0282C20.8942 64.5919 20.5649 65.1556 20.612 65.9542C20.659 66.4239 20.659 66.8937 20.0946 67.1286C19.7654 67.0816 19.6243 66.9407 19.5303 66.6118C19.3892 66.1421 19.2481 65.6723 19.107 65.2495C19.0599 65.1556 19.0129 65.0616 18.9659 64.9677C19.0599 64.4979 19.0599 64.2161 19.0129 63.9342Z" fill="#010101"/>
<path d="M6.78485 53.9754C6.69079 54.2102 6.73782 54.4921 6.92595 54.8209L7.34923 55.7135L9.13641 54.8209L8.71313 53.9284C8.57204 53.5996 8.33688 53.4117 8.10173 53.3177C7.86657 53.2238 7.58438 53.2707 7.3022 53.4117C7.06704 53.5526 6.87892 53.7405 6.78485 53.9754ZM10.8295 53.2238L11.1588 53.8814L13.087 52.9419L14.2628 55.3377L6.5497 59.0957L4.85658 55.6195C4.52736 54.9619 4.38626 54.3042 4.33923 53.6935C4.33923 53.0828 4.48033 52.5191 4.80955 52.0494C5.13876 51.5796 5.56204 51.2038 6.17345 50.875C6.73782 50.5931 7.25517 50.4991 7.77251 50.4991C8.28985 50.5461 8.80719 50.6871 9.23047 51.0159L10.8766 48.3383L12.1464 50.9219L10.8295 53.2238Z" fill="#ED1C24"/>
<path d="M9.70074 47.0699C9.13636 47.8685 8.19574 48.3852 6.9259 48.5731L2.26981 49.3717L1.7995 46.741L6.36152 45.9425C6.97293 45.8485 7.39621 45.6606 7.6784 45.3787C7.91355 45.1439 8.00762 44.815 7.96058 44.3923C7.91355 44.0164 7.6784 43.7346 7.39621 43.5937C7.06699 43.4527 6.59668 43.4058 5.98528 43.4997L1.42325 44.2983L0.952942 41.7146L5.60903 40.916C6.87887 40.6812 7.91355 40.8691 8.71308 41.4328C9.51261 41.9965 10.03 42.842 10.2651 44.0634C10.4532 45.2848 10.3121 46.2713 9.70074 47.0699Z" fill="#010101"/>
<path d="M9.51261 38.1445C9.27746 38.7552 9.0423 39.2249 8.71308 39.6007L6.69074 38.5203C6.97293 38.1445 7.20809 37.7687 7.39621 37.2989C7.58434 36.8292 7.6784 36.4064 7.72543 35.9836C7.77246 35.6078 7.72543 35.3259 7.6784 35.185C7.63137 34.9971 7.49027 34.9501 7.34918 34.9032C7.16106 34.9032 7.01996 34.9971 6.9259 35.185C6.83184 35.3729 6.69074 35.7017 6.54965 36.1715C6.36153 36.7822 6.1734 37.2519 5.93825 37.6747C5.75012 38.0505 5.46794 38.3794 5.04465 38.6612C4.66841 38.9431 4.15106 39.037 3.53966 38.9901C3.02231 38.9431 2.50497 38.7552 2.12872 38.4263C1.70544 38.0975 1.42326 37.6747 1.1881 37.064C0.999975 36.5003 0.905913 35.7957 0.999975 34.9971C1.04701 34.4334 1.1881 33.9167 1.32919 33.3999C1.51732 32.8832 1.75247 32.4604 2.03466 32.0846L4.057 33.0711C3.58669 33.8227 3.3045 34.5273 3.21044 35.232C3.16341 35.9366 3.3045 36.2655 3.63372 36.3124C3.82184 36.3124 3.96294 36.2185 4.057 36.0306C4.15106 35.8427 4.29216 35.5138 4.43325 35.0441C4.62137 34.4334 4.8095 33.9636 4.99762 33.5408C5.18575 33.1181 5.46793 32.7892 5.89121 32.5074C6.26746 32.2255 6.78481 32.1316 7.39621 32.1785C7.91356 32.2255 8.4309 32.4134 8.80715 32.7423C9.23043 33.0711 9.51261 33.4939 9.74777 34.1046C9.93589 34.6683 10.03 35.3729 9.93589 36.1715C9.88886 36.8761 9.74777 37.5338 9.51261 38.1445Z" fill="#010101"/>
<path d="M10.5944 30.8162C10.2181 31.333 9.84186 31.7558 9.46561 32.0846L7.77249 30.5344C8.1017 30.2525 8.43092 29.9237 8.71311 29.5009C8.9953 29.1251 9.23045 28.7023 9.37154 28.2795C9.51264 27.9507 9.55967 27.6688 9.51264 27.4809C9.51264 27.293 9.41858 27.1991 9.27748 27.1521C9.08936 27.1051 8.94826 27.1521 8.80717 27.293C8.66608 27.4809 8.43092 27.7628 8.19577 28.1856C7.86655 28.7023 7.53733 29.1721 7.25514 29.5009C6.97296 29.8297 6.59671 30.0646 6.17343 30.2525C5.75015 30.4404 5.2328 30.3935 4.6214 30.2055C4.10406 30.0176 3.68078 29.7358 3.35156 29.313C3.02234 28.8902 2.83421 28.3735 2.78718 27.7628C2.74015 27.1521 2.83421 26.4475 3.1164 25.6959C3.30453 25.1791 3.53968 24.7094 3.82187 24.2396C4.10406 23.7698 4.43327 23.394 4.80952 23.1122L6.50264 24.5684C5.84421 25.1791 5.3739 25.7898 5.13874 26.4475C4.90359 27.1051 4.95062 27.4809 5.32687 27.6219C5.46796 27.6688 5.65608 27.6219 5.79718 27.4809C5.93827 27.293 6.1264 27.0112 6.40858 26.6354C6.7378 26.1186 7.01999 25.6489 7.30217 25.3201C7.58436 24.9912 7.96061 24.7094 8.38389 24.5684C8.80717 24.3805 9.32451 24.4275 9.93592 24.6154C10.4533 24.8033 10.8765 25.0852 11.1587 25.508C11.4879 25.9307 11.6761 26.4475 11.7231 27.0582C11.7701 27.6688 11.6761 28.3735 11.3939 29.1251C11.2528 29.6888 10.9706 30.2525 10.5944 30.8162Z" fill="#010101"/>
<path d="M7.01578 18.1337L5.66064 20.4442L13.0874 24.7898L14.4425 22.4793L7.01578 18.1337Z" fill="#010101"/>
<path d="M15.5326 15.4081L13.4162 14.5155L14.4509 16.5355L15.5326 15.4081ZM17.602 16.3006L15.5326 18.5085L16.2851 19.9178L14.4039 21.9377L10.5003 13.529L12.2875 11.603L20.9412 14.8913L19.06 16.9113L17.602 16.3006Z" fill="#010101"/>
<path d="M25.6443 5.49617C25.4092 5.40222 25.127 5.44919 24.7977 5.59012L23.9042 6.0129L24.7507 7.84496L25.6443 7.42218C25.9735 7.28125 26.2087 7.09335 26.3027 6.85847C26.3968 6.62359 26.3968 6.34173 26.2557 6.05988C26.0676 5.77802 25.8795 5.59012 25.6443 5.49617ZM26.3027 9.5361L25.6443 9.81795L26.5379 11.7909L24.0923 12.9184L20.5649 5.12036L24.0452 3.52318C24.7037 3.24132 25.3621 3.05342 25.9735 3.10039C26.5849 3.10039 27.1023 3.2883 27.5726 3.61713C28.0429 3.94596 28.4191 4.41572 28.7013 4.97943C28.9365 5.54314 29.0776 6.05988 29.0306 6.62359C28.9835 7.14032 28.7954 7.61008 28.4662 8.07984L31.0999 9.81795L28.4662 10.9923L26.3027 9.5361Z" fill="#ED1C24"/>
<path d="M33.1164 8.59659C32.3169 7.98591 31.8466 7.04639 31.6584 5.77804L31 1.08045L33.6808 0.704639L34.3392 5.30828C34.4333 5.91897 34.6214 6.38873 34.8566 6.62361C35.0917 6.85849 35.4209 6.95244 35.7972 6.90546C36.1734 6.85849 36.4556 6.67058 36.6437 6.34175C36.8319 6.01292 36.8319 5.54316 36.7378 4.93247L36.0794 0.328831L38.7131 0L39.3715 4.69759C39.5597 5.96594 39.3715 6.99941 38.8072 7.798C38.2428 8.59659 37.3492 9.06635 36.1264 9.25426C34.9036 9.44216 33.9159 9.20728 33.1164 8.59659Z" fill="#010101"/>
<path d="M49.4891 1.1744L48.2193 9.67704L46.0088 9.34821L43.6102 5.02642L42.9988 8.87845L40.4121 8.50264L41.729 0L43.8924 0.328831L46.291 4.65062L46.9024 0.798591L49.4891 1.1744Z" fill="#010101"/>
<path d="M60.1182 5.68406L56.4027 13.4351L54.4274 12.4486L53.3457 7.65705L51.6526 11.1333L49.301 10.0058L53.0165 2.25482L54.9918 3.24132L56.0735 8.07984L57.7666 4.55664L60.1182 5.68406Z" fill="#010101"/>
<path d="M62.6936 7.60281L57.3746 14.3615L59.4823 16.0162L64.8012 9.25759L62.6936 7.60281Z" fill="#010101"/>
<path d="M72.2522 17.3811L65.6208 22.8303L64.2099 21.0922L65.2916 16.3007L62.2816 18.7434L60.6355 16.7234L67.2669 11.2742L68.6778 13.0123L67.5491 17.8039L70.6061 15.3611L72.2522 17.3811Z" fill="#010101"/>
<path d="M76.3909 27.6688C76.7202 27.0581 76.8612 26.3535 76.8612 25.6018C76.8612 23.0182 74.7919 20.9512 72.2052 20.9512C69.6184 20.9512 67.5491 23.0182 67.5491 25.6018C67.5491 27.9037 69.2422 29.8297 71.4997 30.2055H71.5467C71.7819 30.2525 72.017 30.2525 72.2052 30.2525C72.4403 30.2525 72.6284 30.2525 72.8636 30.2055C72.9106 30.2055 73.0047 30.1585 73.0517 30.1585C73.1928 30.1115 73.3809 30.0646 73.522 30.0176C73.5691 30.0176 73.6161 30.0176 73.6631 29.9706C73.6631 29.9706 73.7102 29.9706 73.7102 29.9236C73.8983 29.8767 74.0864 29.7827 74.2745 29.6888C74.6508 29.5009 74.98 29.3129 75.2622 29.0311L75.2152 28.9841L72.8636 24.9442L71.2175 25.8837L72.3933 27.9037C72.2992 27.9037 72.1581 27.9037 72.0641 27.9037C70.8413 27.8567 69.8536 26.8232 69.8536 25.5549C69.8536 24.2395 70.8883 23.2061 72.2052 23.2061C73.522 23.2061 74.5567 24.2395 74.5567 25.5549C74.5567 25.9307 74.4627 26.3065 74.3216 26.5883L76.3909 27.6688Z" fill="#010101"/>
<defs>
<linearGradient id="paint0_linear" x1="27.0552" y1="59.4011" x2="81" y2="59.4011" gradientUnits="userSpaceOnUse">
<stop stop-color="#FFF200"/>
<stop offset="1" stop-color="#ED1A3B"/>
</linearGradient>
</defs>
</svg>
